<svg width="36" height="35" viewBox="0 0 36 35" fill="none" xmlns="http://www.w3.org/2000/svg">
<path d="M18.1412 0C8.55669 0 0.714844 7.85586 0.714844 17.5313C0.714844 26.2795 7.09288 33.5405 15.4227 34.8527V22.6053H10.9964V17.5313H15.4227V13.6646C15.4227 9.27306 18.0192 6.85856 22.0098 6.85856C23.9093 6.85856 25.8959 7.19099 25.8959 7.19099V11.5126H23.7002C21.5393 11.5126 20.8597 12.8598 20.8597 14.242V17.5313H25.7042L24.92 22.6053H20.8597V34.8527C24.9661 34.2016 28.7054 32.0979 31.4025 28.9215C34.0996 25.7452 35.5768 21.7053 35.5675 17.5313C35.5675 7.85586 27.7257 0 18.1412 0Z" fill="white"/>
</svg>
