<svg width="36" height="35" viewBox="0 0 36 35" fill="none" xmlns="http://www.w3.org/2000/svg">
<path d="M10.2403 0H25.071C30.7208 0 35.3113 4.53085 35.3113 10.1073V24.7454C35.3113 27.426 34.2324 29.9969 32.312 31.8923C30.3916 33.7878 27.7869 34.8527 25.071 34.8527H10.2403C4.59047 34.8527 0 30.3219 0 24.7454V10.1073C0 7.42667 1.07888 4.85584 2.99931 2.96035C4.91973 1.06487 7.52438 0 10.2403 0ZM9.88716 3.48527C8.20144 3.48527 6.58475 4.14622 5.39277 5.32273C4.20078 6.49924 3.53113 8.09492 3.53113 9.75876V25.0939C3.53113 28.5618 6.37369 31.3674 9.88716 31.3674H25.4241C27.1098 31.3674 28.7265 30.7065 29.9185 29.53C31.1105 28.3535 31.7802 26.7578 31.7802 25.0939V9.75876C31.7802 6.29091 28.9376 3.48527 25.4241 3.48527H9.88716ZM26.9249 6.09922C27.5102 6.09922 28.0715 6.32872 28.4854 6.73723C28.8993 7.14574 29.1318 7.6998 29.1318 8.27752C29.1318 8.85524 28.8993 9.40929 28.4854 9.8178C28.0715 10.2263 27.5102 10.4558 26.9249 10.4558C26.3395 10.4558 25.7782 10.2263 25.3643 9.8178C24.9504 9.40929 24.7179 8.85524 24.7179 8.27752C24.7179 7.6998 24.9504 7.14574 25.3643 6.73723C25.7782 6.32872 26.3395 6.09922 26.9249 6.09922ZM17.6556 8.71318C19.9969 8.71318 22.2423 9.63117 23.8979 11.2652C25.5534 12.8992 26.4835 15.1155 26.4835 17.4264C26.4835 19.7372 25.5534 21.9535 23.8979 23.5875C22.2423 25.2215 19.9969 26.1395 17.6556 26.1395C15.3144 26.1395 13.069 25.2215 11.4134 23.5875C9.75789 21.9535 8.82782 19.7372 8.82782 17.4264C8.82782 15.1155 9.75789 12.8992 11.4134 11.2652C13.069 9.63117 15.3144 8.71318 17.6556 8.71318ZM17.6556 12.1984C16.2509 12.1984 14.9036 12.7492 13.9103 13.7297C12.917 14.7101 12.359 16.0398 12.359 17.4264C12.359 18.8129 12.917 20.1426 13.9103 21.123C14.9036 22.1035 16.2509 22.6543 17.6556 22.6543C19.0604 22.6543 20.4076 22.1035 21.401 21.123C22.3943 20.1426 22.9523 18.8129 22.9523 17.4264C22.9523 16.0398 22.3943 14.7101 21.401 13.7297C20.4076 12.7492 19.0604 12.1984 17.6556 12.1984Z" fill="white"/>
</svg>
