<svg width="118" height="118" viewBox="0 0 118 118" fill="none" xmlns="http://www.w3.org/2000/svg">
<path d="M47.2 85.55V32.45L82.6 59M59 0C51.252 0 43.5799 1.52608 36.4217 4.49111C29.2635 7.45614 22.7594 11.802 17.2807 17.2807C6.21605 28.3453 0 43.3522 0 59C0 74.6478 6.21605 89.6547 17.2807 100.719C22.7594 106.198 29.2635 110.544 36.4217 113.509C43.5799 116.474 51.252 118 59 118C74.6478 118 89.6547 111.784 100.719 100.719C111.784 89.6547 118 74.6478 118 59C118 51.252 116.474 43.5799 113.509 36.4217C110.544 29.2635 106.198 22.7594 100.719 17.2807C95.2406 11.802 88.7365 7.45614 81.5783 4.49111C74.4201 1.52608 66.748 0 59 0Z" fill="#FF9C00"/>
</svg>
