<svg width="27" height="35" viewBox="0 0 27 35" fill="none" xmlns="http://www.w3.org/2000/svg">
<path d="M25.4861 6.97054C27.4139 10.7521 26.9749 15.2132 24.8562 18.8379C23.062 21.7829 20.4852 24.2749 18.2902 27.0108C17.3359 28.2307 16.3815 29.5377 15.6753 30.9492C15.4271 31.4197 15.2554 31.9076 15.0645 32.3956C14.8736 32.8835 14.7018 33.3715 14.53 33.8594C14.3583 34.3125 14.1483 34.8527 13.5184 34.8527C12.774 34.8527 12.5641 34.0859 12.4114 33.5632C11.9533 32.291 11.4952 31.0712 10.789 29.9036C9.9873 28.5269 8.97568 27.2548 7.94498 26.0175L25.4861 6.97054ZM8.02133 11.1877L1.72257 18.0188C2.88688 20.2668 4.62381 22.1837 6.28439 24.1006C6.68522 24.5363 7.08605 24.9894 7.4678 25.4599L15.4271 16.8513L15.3508 16.8687C12.5641 17.74 9.47195 16.4505 8.36489 13.9411C8.2122 13.6448 8.09767 13.2963 8.02133 12.9478C7.92589 12.303 7.9068 11.8325 8.02133 11.2051V11.1877ZM3.17319 4.5657L3.1541 4.58313C0.0619827 8.15553 -0.472458 13.122 1.379 17.3218L8.99477 9.0617L8.89933 8.97457L3.17319 4.5657ZM17.7558 0.627348L11.6097 7.26679L11.6861 7.24936C14.2437 6.44775 17.1068 7.45848 18.4047 9.58449C18.691 10.0724 18.9201 10.5952 18.9964 11.118C19.111 11.7802 19.1491 12.2507 19.0155 12.8955V12.9129L25.1234 6.29091C23.5201 3.64211 20.9052 1.62065 17.7749 0.644775L17.7558 0.627348ZM9.49104 8.52148L16.9541 0.418232L16.8778 0.400806C15.7707 0.139411 14.6446 0 13.5184 0C9.75826 0 6.20805 1.48124 3.68854 4.02549L3.65037 4.04291L9.49104 8.52148Z" fill="white"/>
</svg>
